HIERARCHY
ROOT SpineBase
{
  OFFSET 0.000000 0.000000 0.000000
  CHANNELS 6 Xposition Yposition Zposition Zrotation Xrotation Yrotation
  JOINT SpineMid
  {
    OFFSET 0.000000 32.334159 0.000000
    CHANNELS 3 Zrotation Xrotation Yrotation
    JOINT SpineShoulder
    {
      OFFSET 0.152815 23.956259 -0.789334
      CHANNELS 3 Zrotation Xrotation Yrotation
      JOINT Neck
      {
        OFFSET 0.117776 7.910239 -0.595961
        CHANNELS 3 Zrotation Xrotation Yrotation
        JOINT Head
        {
          OFFSET -5.519347 14.092113 -1.105990
          CHANNELS 3 Zrotation Xrotation Yrotation
          End Site
          {
            OFFSET 0 0 0
          }
        }
      }
      JOINT ShoulderLeft
      {
        OFFSET -17.467993 -6.758076 6.142805
        CHANNELS 3 Zrotation Xrotation Yrotation
        JOINT ElbowLeft
        {
          OFFSET -1.536191 -26.801894 4.002450
          CHANNELS 3 Zrotation Xrotation Yrotation
          JOINT WristLeft
          {
            OFFSET 0.292480 -22.723125 -3.324868
            CHANNELS 3 Zrotation Xrotation Yrotation
            JOINT HandLeft
            {
              OFFSET 0.203427 -4.884530 -1.970794
              CHANNELS 3 Zrotation Xrotation Yrotation
              JOINT HandTipLeft
              {
                OFFSET 0.802381 -6.844820 -2.065519
                CHANNELS 3 Zrotation Xrotation Yrotation
                End Site
                {
                  OFFSET 0 0 0
                }
              }
              JOINT ThumbLeft
              {
                OFFSET -0.898145 -5.774532 -1.991840
                CHANNELS 3 Zrotation Xrotation Yrotation
                End Site
                {
                  OFFSET 0 0 0
                }
              }
            }
          }
        }
      }
      JOINT ShoulderRight
      {
        OFFSET 15.573588 -3.394091 -7.857305
        CHANNELS 3 Zrotation Xrotation Yrotation
        JOINT ElbowRight
        {
          OFFSET 7.408333 -26.532811 0.190053
          CHANNELS 3 Zrotation Xrotation Yrotation
          JOINT WristRight
          {
            OFFSET -0.317484 -21.959398 -4.302705
            CHANNELS 3 Zrotation Xrotation Yrotation
            JOINT HandRight
            {
              OFFSET -2.227634 -7.816997 -1.040554
              CHANNELS 3 Zrotation Xrotation Yrotation
              JOINT HandTipRight
              {
                OFFSET -0.238549 -7.428294 -0.993425
                CHANNELS 3 Zrotation Xrotation Yrotation
                End Site
                {
                  OFFSET 0 0 0
                }
              }
              JOINT ThumbRight
              {
                OFFSET -3.030060 -0.050243 -2.717492
                CHANNELS 3 Zrotation Xrotation Yrotation
                End Site
                {
                  OFFSET 0 0 0
                }
              }
            }
          }
        }
      }
    }
  }
  JOINT HipLeft
  {
    OFFSET -6.157908 -0.032474 -1.273574
    CHANNELS 3 Zrotation Xrotation Yrotation
    JOINT KneeLeft
    {
      OFFSET 1.934763 -35.787657 6.033819
      CHANNELS 3 Zrotation Xrotation Yrotation
      JOINT AnkleLeft
      {
        OFFSET 3.719258 -35.316958 8.667328
        CHANNELS 3 Zrotation Xrotation Yrotation
        JOINT FootLeft
        {
          OFFSET 0.582112 -8.212784 -6.302891
          CHANNELS 3 Zrotation Xrotation Yrotation
          End Site
          {
            OFFSET 0 0 0
          }
        }
      }
    }
  }
  JOINT HipRight
  {
    OFFSET 7.706494 1.751145 -6.007869
    CHANNELS 3 Zrotation Xrotation Yrotation
    JOINT KneeRight
    {
      OFFSET 8.750690 -33.671296 2.462699
      CHANNELS 3 Zrotation Xrotation Yrotation
      JOINT AnkleRight
      {
        OFFSET 3.808628 -35.880994 7.646227
        CHANNELS 3 Zrotation Xrotation Yrotation
        JOINT FootRight
        {
          OFFSET -2.938625 -4.966811 -11.343402
          CHANNELS 3 Zrotation Xrotation Yrotation
          End Site
          {
            OFFSET 0 0 0
          }
        }
      }
    }
  }
}
MOTION
Frames: 14
Frame Time: 0.033333
-70.227319 80.428817 328.325586 -0.000000 0.000000 18.853561 -0.000000 0.000000 -18.853561 -0.000000 0.000000 0.000000 -0.000000 0.000000 0.000000 0.000000 0.000000 0.000000 -0.000000 0.000000 0.000000 -0.000000 0.000000 0.000000 -0.000000 0.000000 0.000000 -0.000000 0.000000 0.000000 0.000000 0.000000 0.000000 0.000000 0.000000 0.000000 -0.000000 0.000000 0.000000 -0.000000 0.000000 0.000000 -0.000000 0.000000 0.000000 -0.000000 0.000000 0.000000 0.000000 0.000000 0.000000 0.000000 0.000000 0.000000 -0.000000 0.000000 -18.853561 -0.000000 0.000000 0.000000 -0.000000 0.000000 0.000000 0.000000 0.000000 0.000000 -0.000000 0.000000 -18.853561 -0.000000 0.000000 0.000000 -0.000000 0.000000 0.000000 0.000000 0.000000 0.000000
-70.231824 80.408889 328.335973 -0.000227 0.002504 18.832958 -0.000594 -0.002443 -18.832958 -0.000000 0.000000 0.000000 -0.000000 0.000000 0.000000 0.000000 0.000000 0.000000 -0.000000 0.000000 0.000000 -0.000000 0.000000 0.000000 0.193698 -1.495061 -0.138614 1.616129 3.585279 -0.237722 0.000000 0.000000 0.000000 0.000000 0.000000 0.000000 -0.000000 0.000000 0.000000 -0.000000 0.000000 0.000000 0.221695 -0.984863 0.253490 -0.217368 0.985827 -0.249715 0.000000 0.000000 0.000000 0.000000 0.000000 0.000000 -0.000594 -0.002443 -18.832958 -0.000000 0.000000 0.000000 -2.109536 -0.082081 1.614703 0.000000 0.000000 0.000000 -0.000594 -0.002443 -18.832958 -0.000000 0.000000 0.000000 1.799021 -5.837117 -0.641385 0.000000 0.000000 0.000000
-70.238082 80.390271 328.351323 -0.001563 0.000636 18.820926 0.001274 -0.001107 -18.820926 -0.000000 0.000000 0.000000 -0.000000 0.000000 0.000000 0.000000 0.000000 0.000000 -0.000000 0.000000 0.000000 -0.000000 0.000000 0.000000 0.323408 -2.754662 -0.239755 2.746832 6.143220 -0.510938 0.000000 0.000000 0.000000 0.000000 0.000000 0.000000 -0.000000 0.000000 0.000000 -0.000000 0.000000 0.000000 0.409525 -1.764808 0.456154 -0.395652 1.767969 -0.443741 0.000000 0.000000 0.000000 0.000000 0.000000 0.000000 0.001274 -0.001107 -18.820926 -0.000000 0.000000 0.000000 -3.842923 -0.195745 2.940114 0.000000 0.000000 0.000000 0.001274 -0.001107 -18.820926 -0.000000 0.000000 0.000000 3.436059 -11.347157 -1.022922 0.000000 0.000000 0.000000
-70.246094 80.372963 328.371636 -0.004010 -0.005602 18.817466 0.005602 0.004009 -18.817466 -0.000000 0.000000 0.000000 -0.000000 0.000000 0.000000 0.000000 0.000000 0.000000 -0.000000 0.000000 0.000000 0.290576 0.930881 -0.032856 0.103631 -4.709858 -0.271869 3.385506 7.673115 -0.725211 0.000000 0.000000 0.000000 0.000000 0.000000 0.000000 -0.000000 0.000000 0.000000 -0.000000 0.000000 0.000000 0.563341 -2.349175 0.608615 -0.152057 1.541476 -0.625991 0.000000 0.000000 0.000000 0.000000 0.000000 0.000000 0.005602 0.004009 -18.817466 -0.000000 0.000000 0.000000 -5.187679 -0.313680 3.967050 0.000000 0.000000 0.000000 0.005602 0.004009 -18.817466 -0.000000 0.000000 0.000000 4.834692 -16.138463 -1.152216 0.000000 0.000000 0.000000
-70.255859 80.356965 328.396912 -0.007566 -0.016209 18.822587 0.012391 0.012901 -18.822590 -0.000000 0.000000 0.000000 -0.000000 0.000000 0.000000 0.000000 0.000000 0.000000 0.059412 -0.905437 0.061169 0.306746 2.036103 -0.108230 0.040013 -5.701051 -0.298025 3.515018 8.167165 -0.819008 0.000000 0.000000 0.000000 0.000000 0.000000 0.000000 -0.000000 0.000000 0.000000 -0.000000 0.000000 0.000000 0.683046 -2.744379 0.711128 -0.127725 1.864696 -0.743104 0.000000 0.000000 0.000000 0.000000 0.000000 0.000000 0.012391 0.012901 -18.822590 -0.000000 0.000000 0.000000 -6.138750 -0.414342 4.692350 0.000000 0.000000 0.000000 0.012391 0.012901 -18.822590 -0.000000 0.000000 0.000000 5.921232 -19.890316 -1.069060 0.000000 0.000000 0.000000
-70.267378 80.342278 328.427150 -0.012231 -0.031185 18.836303 0.021644 0.025566 -18.836311 -0.000000 0.000000 0.000000 -0.000000 0.000000 0.000000 0.000000 0.000000 0.000000 0.060552 -1.042926 0.069280 0.368379 2.320815 -0.126523 -0.070677 -6.409145 -0.296324 3.112226 7.600197 -0.764174 0.000000 0.000000 0.000000 0.000000 0.000000 0.000000 -0.000000 0.000000 0.000000 -0.000000 0.000000 0.000000 0.768544 -2.953889 0.763544 -0.066531 2.097668 -0.816832 0.000000 0.000000 0.000000 0.000000 0.000000 0.000000 0.021644 0.025566 -18.836311 -0.000000 0.000000 0.000000 -6.695116 -0.482521 5.115954 0.000000 0.000000 0.000000 0.021644 0.025566 -18.836311 -0.000000 0.000000 0.000000 6.628682 -22.385835 -0.830829 0.000000 0.000000 0.000000
-70.283459 80.325286 328.485441 -0.018342 -0.064177 18.895496 0.038137 0.054779 -18.895524 -0.000000 0.000000 0.000000 -0.000000 0.000000 0.000000 0.000000 0.000000 0.000000 0.036676 -1.164760 0.072503 0.460782 2.603821 -0.141697 -0.275849 -6.400604 -0.235018 1.346734 3.396021 -0.468532 0.000000 0.000000 0.000000 0.000000 0.000000 0.000000 -0.000000 0.000000 0.000000 -0.000000 0.000000 0.000000 0.938834 -2.710107 0.673370 -0.907955 2.720601 -0.629600 0.000000 0.000000 0.000000 0.000000 0.000000 0.000000 0.038137 0.054779 -18.895524 -0.000000 0.000000 0.000000 -6.417319 -0.406391 4.908410 0.000000 0.000000 0.000000 0.038137 0.054779 -18.895524 -0.000000 0.000000 0.000000 5.598510 -19.111386 -0.749653 0.000000 0.000000 0.000000
-70.302893 80.313102 328.547597 -0.028052 -0.099995 18.961587 0.059022 0.085454 -18.961655 -0.000000 0.000000 0.000000 -0.000000 0.000000 0.000000 0.000000 0.000000 0.000000 0.016132 -1.219904 0.072389 0.532891 2.680782 -0.151531 -0.308769 -7.118080 -0.263032 -1.044034 1.307125 0.126623 0.000000 0.000000 0.000000 0.000000 0.000000 0.000000 -0.000000 0.000000 0.000000 -0.000000 0.000000 0.000000 0.925818 -3.169885 0.810777 -0.326381 2.495766 -0.841917 0.000000 0.000000 0.000000 0.000000 0.000000 0.000000 0.059022 0.085454 -18.961655 -0.000000 0.000000 0.000000 -5.454617 -1.010785 4.109457 0.000000 0.000000 0.000000 0.059022 0.085454 -18.961655 -0.000000 0.000000 0.000000 3.819158 -13.403347 -0.435675 0.000000 0.000000 0.000000
-70.317522 80.302780 328.586007 -0.035266 -0.125576 18.987442 0.074205 0.107269 -18.987550 -0.000000 0.000000 0.000000 -0.000000 0.000000 0.000000 0.000000 0.000000 0.000000 0.005603 -1.235927 0.071624 0.632374 2.624177 -0.167723 -0.928116 -6.482294 -0.045913 -2.588058 -2.314746 0.156504 0.000000 0.000000 0.000000 0.000000 0.000000 0.000000 -0.000000 0.000000 0.000000 -0.000000 0.000000 0.000000 0.704812 -2.378477 0.601420 0.678277 1.372315 -0.768341 0.000000 0.000000 0.000000 0.000000 0.000000 0.000000 0.074205 0.107269 -18.987550 -0.000000 0.000000 0.000000 -5.361694 -0.889910 4.048983 0.000000 0.000000 0.000000 0.074205 0.107269 -18.987550 -0.000000 0.000000 0.000000 3.756516 -13.726424 0.042913 0.000000 0.000000 0.000000
-70.332881 80.296367 328.605209 -0.042400 -0.138914 18.985677 0.085286 0.117563 -18.985816 -0.000000 0.000000 0.000000 -0.000000 0.000000 0.000000 0.000000 0.000000 0.000000 -0.000729 -1.244778 0.071117 0.619585 2.566339 -0.164535 -1.067115 -5.793452 0.035744 -2.339856 -3.651431 -0.106088 0.000000 0.000000 0.000000 0.000000 0.000000 0.000000 -0.000000 0.000000 0.000000 -0.000000 0.000000 0.000000 0.476495 -1.927594 0.495646 1.115172 0.678826 -0.688379 0.000000 0.000000 0.000000 0.000000 0.000000 0.000000 0.085286 0.117563 -18.985816 -0.000000 0.000000 0.000000 -5.149936 -0.599320 3.912206 0.000000 0.000000 0.000000 0.085286 0.117563 -18.985816 -0.000000 0.000000 0.000000 4.327945 -16.249000 0.625857 0.000000 0.000000 0.000000
-70.337369 80.298185 328.597086 -0.041019 -0.137307 18.972471 0.083431 0.116512 -18.972605 -0.000000 0.000000 0.000000 -0.000000 0.000000 0.000000 0.000000 0.000000 0.000000 0.012017 -1.224233 0.071980 0.589441 2.486907 -0.162262 -0.948438 -4.554311 0.052887 -2.768877 -5.969175 -0.238633 0.000000 0.000000 0.000000 0.000000 0.000000 0.000000 -0.000000 0.000000 0.000000 -0.000000 0.000000 0.000000 0.490922 -1.880469 0.480272 1.338016 1.172580 -0.733961 0.000000 0.000000 0.000000 0.000000 0.000000 0.000000 0.083431 0.116512 -18.972605 -0.000000 0.000000 0.000000 -4.709020 0.095496 3.633712 0.000000 0.000000 0.000000 0.083431 0.116512 -18.972605 -0.000000 0.000000 0.000000 5.749989 -21.284332 1.252955 0.000000 0.000000 0.000000
-70.340315 80.300357 328.589140 -0.037846 -0.135141 19.016394 0.079814 0.115434 -19.016519 -0.000000 0.000000 0.000000 -0.000000 0.000000 0.000000 0.000000 0.000000 0.000000 0.053366 -1.119205 0.072538 0.572795 2.259532 -0.166268 -1.101177 -4.855507 0.085787 -2.962574 -5.283863 -0.121445 0.000000 0.000000 0.000000 0.000000 0.000000 0.000000 -0.000000 0.000000 0.000000 -0.199192 -0.877785 0.050269 0.721120 -1.260556 0.490071 2.325868 1.326256 -0.972521 0.000000 0.000000 0.000000 0.000000 0.000000 0.000000 0.079814 0.115434 -19.016519 -0.000000 0.000000 0.000000 -4.747858 0.779130 3.723547 0.000000 0.000000 0.000000 0.079814 0.115434 -19.016519 -0.000000 0.000000 0.000000 9.597153 -32.767555 2.838762 0.000000 0.000000 0.000000
-70.342649 80.304681 328.577597 -0.029277 -0.122251 19.072349 0.067617 0.105973 -19.072442 -0.000000 0.000000 0.000000 -0.000000 0.000000 0.000000 0.000000 0.000000 0.000000 0.104321 -1.003692 0.073929 0.463812 1.988834 -0.156852 -0.843080 -4.821161 0.004585 -2.696411 -4.048845 0.007320 0.000000 0.000000 0.000000 0.000000 0.000000 0.000000 -0.000000 0.000000 0.000000 -0.048305 -1.260005 0.027210 0.499013 -0.868316 0.518593 3.469978 -0.257752 -1.055576 0.000000 0.000000 0.000000 0.000000 0.000000 0.000000 0.067617 0.105973 -19.072442 -0.000000 0.000000 0.000000 -5.055364 1.119901 3.991997 0.000000 0.000000 0.000000 0.067617 0.105973 -19.072442 -0.000000 0.000000 0.000000 13.071212 -41.070910 4.320318 0.000000 0.000000 0.000000
-70.339647 80.308186 328.563797 -0.019761 -0.116943 19.110592 0.056958 0.104028 -19.110664 -0.000000 0.000000 0.000000 -0.000000 0.000000 0.000000 0.000000 0.000000 0.000000 0.119879 -0.945018 0.072972 0.441764 1.779983 -0.155316 -0.754881 -4.775564 -0.026974 -1.763217 -0.956650 0.149057 0.000000 0.000000 0.000000 0.000000 0.000000 0.000000 -0.000000 0.000000 0.000000 0.185596 -2.450793 0.003056 0.776315 0.721613 0.344579 4.482520 -1.034432 -1.030164 0.000000 0.000000 0.000000 0.000000 0.000000 0.000000 0.056958 0.104028 -19.110664 -0.000000 0.000000 0.000000 -5.403636 0.937435 4.246367 0.000000 0.000000 0.000000 0.056958 0.104028 -19.110664 -0.000000 0.000000 0.000000 9.867338 -33.507621 3.046042 0.000000 0.000000 0.000000
